<?xml version="1.0" encoding="UTF-8"?>
<!DOCTYPE svg PUBLIC "-//W3C//DTD SVG 1.1//EN" "http://www.w3.org/Graphics/SVG/1.1/DTD/svg11.dtd">
<!-- Creator: CorelDRAW 2021 (64-Bit) -->
<svg xmlns="http://www.w3.org/2000/svg" xml:space="preserve" width="100%" height="100%" version="1.1" shape-rendering="geometricPrecision" text-rendering="geometricPrecision" image-rendering="optimizeQuality" fill-rule="evenodd" clip-rule="evenodd"
viewBox="0 0 806.74 425.74"
 xmlns:xlink="http://www.w3.org/1999/xlink"
 xmlns:xodm="http://www.corel.com/coreldraw/odm/2003">
 <g id="Layer_x0020_1">
  <metadata id="CorelCorpID_0Corel-Layer"/>
  <g id="_2669856829264">
   <g>
    <path fill="#A4A4A4" fill-opacity="0.701961" d="M591.41 0.53c-3.54,1.3 -7.39,2.97 -9.36,6.39 -3.55,6.15 -3.41,5.32 -3.41,12.76l0 176.56c0,5.02 -0.7,10.11 1.53,14.63 7.08,14.3 24.28,12.5 30.25,3.11 1.03,-1.61 2.44,-3.22 2.97,-5.12 0.44,-1.59 -0.12,-2.15 0.19,-3.63 0.35,-1.67 0.83,-1 0.83,-3.42 0,-20 0.47,-182.17 -0.33,-184.39 -1.18,-3.25 0.21,-3.22 -1.56,-6.53 -2,-3.74 -3.39,-6.69 -7.51,-8.66 -2.2,-1.05 -3.39,-2.15 -5.93,-2.16 -2.33,-0.01 -5.61,-0.31 -7.69,0.46z"/>
    <path fill="#A4A4A4" fill-opacity="0.701961" d="M205.13 0.53c-11.07,5.15 -11.91,9.76 -11.91,20l0 175.7c0,5.38 -0.65,9.87 1.26,14.91 2.42,6.39 12.14,12.3 21.29,9.33 3.63,-1.18 7.17,-3.28 9.24,-6.5 3.64,-5.67 3.1,-6.38 3.1,-13.07l0 -175.7c0,-7.4 1.65,-18.04 -9.08,-23.26 -2.92,-1.42 -2.73,-1.92 -6.23,-1.85 -2.08,0.04 -5.96,-0.36 -7.67,0.43z"/>
    <path fill="#A4A4A4" fill-opacity="0.701961" d="M303.82 66.04l-3.48 1.2c-3.89,1.09 -8.18,5.28 -9.87,9.7 -2,5.23 -1.12,6.76 -1.12,13.77l0 78.28c-0.02,2.44 -0.26,1.99 0.57,4.11 0.42,1.08 0.14,0.93 0.55,2 1.58,4.13 6.96,9.91 11.65,10.48 2.92,0.35 2.89,2.09 10.14,-0.07 6.36,-1.89 8.53,-4.91 11.43,-10.69 1.9,-3.78 1.4,-9.77 1.4,-13.49 0,-25.15 0.46,-53.64 0.03,-78.31 -0.03,-1.8 -1.31,-5.46 -2.3,-7.49 -0.88,-1.82 -1.13,-1.5 -1.86,-2.82 -1.7,-3.1 -7.07,-5.89 -8.69,-6.2 -1.07,-0.2 -0.76,0.16 -1.94,-0.19 -0.02,-0 -3.78,-1.95 -6.52,-0.29z"/>
    <path fill="#A4A4A4" fill-opacity="0.701961" d="M689.26 66.04c-1.51,0.91 -0.2,0.07 -1.63,0.5 -3.74,1.11 -3.31,1.51 -5.18,2.48 -5.04,2.62 -5.87,6.78 -7.09,9.92 -0.48,1.22 -0.48,-0.09 -0.6,1.95 -0.17,2.95 0.04,6.76 0.04,9.82l0 78.28c-0.02,3.15 0.52,4.88 1.98,7.8 1.44,2.89 2.18,3.12 4.4,5.39 2.3,2.35 6.92,4.3 10.2,4.26 4.24,-0.04 2.57,0.19 6.32,-0.93 5.72,-1.7 7.13,-3.83 9.87,-7.57 1.8,-2.46 0.55,-0.41 1.54,-3.13 2.41,-6.59 1.42,-3.59 1.42,-13.47l0.01 -78.29c0.05,-4.33 -3.34,-10.43 -6.37,-13.2 -3.27,-3 -7.91,-3.38 -8.39,-3.52 -1.19,-0.35 -0.02,-0.5 -1.82,-0.73 -1.41,-0.18 -3.56,-0.24 -4.7,0.44z"/>
    <path fill="#A4A4A4" fill-opacity="0.701961" d="M496.96 66.04c-0.78,0.48 -4.44,0.59 -7.04,2.75 -0.04,0.03 -0.93,1.02 -1.02,1.11 -1.09,1 -1.04,0.52 -1.59,0.96 -0.89,0.7 -0.02,0.41 -2.28,2.82 -0.75,0.81 -1.35,2.17 -1.61,3.07l-1.8 7.98 0.01 83.43c0.25,1.97 0.68,0.6 0.85,3.83 0.11,2.1 0.08,0.68 0.58,1.97 0.61,1.55 2.03,6.07 4.54,7.79 0.61,0.42 0.86,0.35 1.43,0.7 0.81,0.51 1.3,1.53 4.79,2.87 2.74,1.05 5.35,1.55 8.69,1.13 1.67,-0.21 0.57,-0.2 1.54,-0.58 5.45,-2.13 8.39,-2.93 11.93,-10.2 2.13,-4.37 1.41,-8.3 1.41,-13.49 0,-8.57 0.46,-80.79 -0.26,-82.69 -1.7,-4.5 -1.79,-5.22 -5.69,-9.2l-4.31 -2.92c-0.54,-0.16 -0.37,0.01 -1.06,-0.21 -2.15,-0.69 -6.21,-2.87 -9.09,-1.11z"/>
    <path fill="#A4A4A4" fill-opacity="0.701961" d="M111.53 66.04c-0.93,0.57 -4.11,0.41 -7.02,2.76 -1.34,1.09 -1.76,0.96 -2.8,1.89l-3.8 5.98c-1.33,2.54 -0.38,2.04 -1.12,3.99 -0.98,2.6 -0.58,5.54 -0.58,9.2l-0.01 78.29c-0.04,3.4 0.4,1.93 0.81,3.87 0.74,3.57 2.18,6.76 5.15,9.74l4.31 2.92c4.13,1.22 5.61,2.39 10.6,1.77l6.95 -2.83c0.83,-0.52 4.28,-3.94 4.94,-4.85 1.04,-1.46 1.77,-3.57 2.2,-5.03 0.41,-1.38 0.49,-0.59 0.75,-1.81l0.04 -88.03c0,-1.46 0.2,-3.17 -0.26,-4.41 -1.7,-4.5 -1.79,-5.22 -5.69,-9.2 -1.48,-1.52 -1.51,-0.87 -2.77,-1.91 -1.07,-0.87 0.03,-0.54 -1.54,-1.01 -0.54,-0.16 -0.37,0.01 -1.06,-0.21 -2.15,-0.69 -6.21,-2.87 -9.09,-1.11z"/>
    <path fill="#A4A4A4" fill-opacity="0.701961" d="M13.69 114.54c-1.57,1.02 -0.48,-0.21 -3.12,1.13 -4.35,2.21 -6.71,4.63 -8.93,8.93 -1.32,2.54 -0.29,1.92 -0.97,3.71 -0.95,2.48 -0.59,2.27 -0.59,6.22l0.13 36.89c0.46,1.47 0.15,-0.38 0.59,1.11 0.22,0.73 0.05,0.88 0.15,1.56 0.3,2.24 3.66,6.43 5.5,8.11l4.12 2.69c1.53,0.78 0.63,0.41 2.69,0.71 3.08,0.44 -1.32,1 6,0.87l6.08 -1.57c1.7,-0.87 5.83,-3.88 6.82,-5.52 2.71,-4.5 1.13,-1.56 2.24,-4.56l0.85 -2.55c1.21,-3.07 0.57,-9.63 0.57,-13.04l-0.13 -30.08c-0.46,-1.48 -0.15,0.38 -0.59,-1.11 -0.46,-1.56 0.55,-1.12 -1.1,-4 -1.22,-2.13 -2.77,-3.81 -4.56,-5.65 -0.64,-0.65 -1.09,-1.19 -1.82,-1.59l-4.83 -1.97c-1.28,-0.44 -0.42,-0.69 -2.68,-0.72 -1.88,-0.03 -5.08,-0.41 -6.41,0.46z"/>
    <path fill="#A4A4A4" fill-opacity="0.701961" d="M784.55 114.54c-1.5,0.97 -0.57,-0.1 -2.85,0.98 -0.09,0.04 -0.19,0.1 -0.28,0.14 -1.67,0.83 -5.85,3.91 -6.82,5.52 -3.63,6.03 -1.26,2.48 -3.09,7.11 -1.21,3.07 -0.57,9.62 -0.57,13.04l-0.02 28.52c0.28,2.27 0.53,0.28 0.86,2.55l0.99 4.12 4.53 5.68 4.13 2.69c1.53,0.78 0.63,0.41 2.69,0.71 3.08,0.44 -1.32,1 6,0.87l6.08 -1.57c0.09,-0.05 0.2,-0.09 0.29,-0.14 0.86,-0.45 -0.12,0.3 1.05,-0.65 0.17,-0.14 0.88,-0.79 0.9,-0.8 1.29,-0.8 0.24,0.51 2.93,-2.18l4.22 -5.99c0.45,-1.2 0.05,-1.68 0.52,-2.89 0.95,-2.48 0.59,-2.27 0.59,-6.22l-0.13 -36.88c-0.56,-1.79 -0.17,1.46 -0.73,-2.67l-1.55 -3.56c-0.92,-1.89 -4.87,-5.62 -5.79,-6.12 -0.11,-0.06 -0.47,-0.2 -0.59,-0.26l-6.92 -2.44c-1.88,-0.03 -5.08,-0.41 -6.41,0.46z"/>
    <path fill="#A4A4A4" fill-opacity="0.701961" d="M399.12 114.54c-1.85,1.2 -3.25,-0.1 -8.3,4.89 -2.67,2.64 -1.42,1.7 -2.18,2.93 -0.07,0.11 -0.63,0.65 -0.81,0.89 -0.83,1.04 -1.13,3.49 -1.75,5.06 -0.57,1.44 -0.59,0.46 -0.59,2.81 0,1.14 0.02,2.28 0.02,3.42l0.13 36.89c0.42,1.38 0.1,-0.22 0.57,1.13l0.85 2.55c0.23,0.72 0.05,0.79 0.28,1.42l4.53 5.68c1.61,1.47 0.72,0.25 2.14,1.26 2.2,1.57 1.38,1.66 4.68,2.13 3.08,0.44 -1.32,1 6,0.87l9.49 -3.69 3.4 -3.41c1.66,-2.74 1.8,-2.5 2.75,-5.76 0.26,-0.88 -0.03,-0.41 0.35,-1.35 0.57,-1.44 0.59,-0.47 0.59,-2.82l-0.14 -40.31c-0.42,-1.38 -0.11,0.22 -0.57,-1.13l-3.98 -7.93c-2.02,-1.98 -3.83,-3.93 -6.96,-4.95 -2.41,-0.79 -8.08,-2.14 -10.49,-0.57z"/>
   </g>
   <g>
    <path fill="#C6C7C7" fill-opacity="0.701961" d="M636.5 381.7c-2.61,-1.06 -4.39,-3.02 -5.48,-5.53 0.07,-1.2 -0.21,-1.67 -1.11,-2.77 -1.98,-2.41 -5.22,-9.06 -5.32,-12.12 -0.11,-3.24 -0.59,-1.1 -0.87,-3.39l0 -11.1 1.44 -4.94c0.42,-1.09 0.13,-0.75 0.44,-1.69 0.98,-2.95 2.72,-6.19 4.37,-8.83l2.92 -3.88c0.8,-0.78 1.57,-1.56 2.34,-2.34 3.35,-3.43 8.68,-5.8 12.33,-7.23 1.45,-0.57 3.5,-1.29 5.11,-1.28 5,0.04 -1.32,-0.8 8.08,-0.85 1.86,-0.01 2.26,-0.26 3.83,0.43 2,0.86 2.09,0.07 3.7,0.55 1.17,0.35 -0.12,0.34 1.46,0.67 0.9,0.19 0.94,-0.1 1.95,0.18l6.24 2.69c2.23,1.44 8.45,5.95 9.63,8.24 0.81,1.6 0.91,1.09 1.93,2.32 0.58,0.69 1.06,2.01 1.46,2.8 1,1.95 1.16,0.73 1.72,2.95 0.38,1.49 0.69,1.61 1.29,2.96 1.12,2.51 2.11,8.26 2.11,11.08 -0,1.42 -0.01,2.84 0,4.26 0.04,4.4 -0.17,2.6 -0.59,3.67 -0.61,1.56 0.07,2.14 -0.53,3.73 -1.82,4.84 -2.35,7.52 -5.91,11.96 -1.11,1.39 -0.28,1.18 -1.9,2.78 -1.19,1.17 -3.04,3.4 -4.39,4.12 -1.83,0.98 -0.92,0.46 -2.41,1.85 -0.83,0.78 -2.03,1.2 -3,1.68 -2.34,1.16 -6.78,3.09 -9.36,3.4 -2.75,0.34 -0.89,0.83 -3.8,0.88 -2.76,0.05 -5.81,0.05 -8.57,0 -3.17,-0.06 -1.07,-0.64 -3.37,-0.89 -2.93,-0.33 -3.26,-0.09 -6.96,-1.97l-5.81 -3.12c-0.9,-0.77 -0.07,-0.31 -1.26,-0.9 -1.68,-0.81 -0.46,-0.55 -1.72,-0.38zm79.98 -75.78c-1.65,-0.81 -7.98,-7.19 -8.81,-8.87 -0.88,-4.07 -17.96,-11.76 -22.11,-13.31 -6.11,-2.28 -13.41,-3.03 -14.46,-3.41 -1.34,-0.48 -20.5,-0.5 -21.75,-0.22 -2.32,0.54 -0.9,0.67 -3.93,0.75l-14.02 3.84c-0.56,0.22 -6.06,2.7 -6.17,2.77 -10.41,7.06 -8.66,3.48 -20.42,15.31 -4.98,5.01 -11.45,15.09 -13.94,21.79 -0.81,2.18 -1.44,4.47 -2.24,6.69l-2.35 10.84c0.06,2.95 0.11,1.51 -0.64,4.04 -0.33,1.1 -0.47,11.02 0.12,12.72 0.92,2.66 0.45,1.51 0.5,4.18 0.02,0.95 1.32,6.07 1.63,7.31 1.88,7.54 6.25,18.79 10.97,24.76 8,10.13 17.8,18.59 29.69,23.92 4.86,2.18 8.73,2.78 13.6,4.26 7.17,2.19 9.32,1 11.8,1.39 3.3,0.52 -0.16,0.93 8.14,0.89 2.25,-0.01 2.08,-0.61 3.79,-0.89 1.42,-0.23 2.87,0.11 4.3,0.05l11.24 -2.37c2.21,-0.8 4.56,-1.43 6.7,-2.24 1.72,-0.65 4.61,-1.82 6.25,-2.69 2.39,-1.26 9.7,-5.31 11.1,-6.76 1.91,-1.97 3.09,-2.23 4.85,-4.08l6.63 -6.56c1.14,-1.13 1.07,-1.79 1.88,-2.8 0.97,-1.21 0.94,-0.68 1.92,-2.33 0.57,-0.97 1.24,-1.82 1.86,-2.82 1.36,-2.17 2.08,-3.37 3.24,-5.69 0.89,-1.78 2.26,-4.17 2.98,-5.95 1.54,-3.82 3.3,-9.84 3.87,-14 0.21,-1.58 0.78,-1.57 0.86,-3.39 0.07,-1.55 -0.32,-3.13 0.03,-4.66 0.81,-3.54 1.07,-2.24 0.82,-8.22 -0.07,-1.79 -0.66,-1.91 -0.9,-3.36 -0.25,-1.55 0.19,-3.15 0.03,-4.7l-3.54 -14.33c-1.63,-4.83 -5.99,-13.82 -9.28,-17.52 -1.39,-1.56 -1.67,-3.93 -4.24,-4.33z"/>
    <path fill="#C6C7C7" fill-opacity="0.701961" d="M314.82 389.79c-0.72,0.79 0.43,0.59 -1.41,0.63l-0.78 -0.37 -1.15 1.64 0 29.59c3.54,0.09 0,0.53 2.97,0.86 0.52,0.06 1.58,-0.08 2.1,0.02 1.74,0.35 0.14,0.28 1.44,0.69 1.11,0.35 2.53,0.03 3.74,0.09 4.02,0.22 -2.25,0.69 7.23,0.85 3.37,0.06 0.89,0.59 3.35,0.9 2.38,0.29 6.17,-0.33 8.55,-0.04 3.47,0.43 -2.38,0.87 7.21,0.87 1.43,0 2.85,0.02 4.27,0.02 5,0.02 -0.85,-0.95 7.22,-0.86 3.14,0.04 1.84,-0.2 3.52,-0.73 1.2,-0.37 2.8,0.12 4,-0.25 1.3,-0.41 -0.32,-0.3 1.45,-0.67 0.75,-0.16 1.15,0.05 1.94,-0.19l6.25 -1.83c0.35,-0.14 2.25,-1.2 2.54,-1.29 0.96,-0.31 0.63,0.01 1.72,-0.41l5.36 -2.72c0.28,-0.2 0.8,-0.8 1.13,-1 6.53,-4.05 5.07,-3.58 11.23,-9.61 1.78,-1.74 0.72,-1.17 1.7,-2.55 1.6,-2.24 3.37,-5.25 4.41,-7.93l1.97 -6.11c0.06,-0.52 -0.08,-1.58 0.03,-2.1 0.35,-1.74 0.28,-0.14 0.69,-1.44l0.13 -11.8c0.03,-3.13 -0.23,-1.87 -0.72,-3.53 -0.15,-0.51 -0.09,-2 -1.26,-5.12 -0.35,-0.93 -0.14,0.05 -0.57,-1.56 -0.32,-1.2 -0.64,-1.72 -1.13,-2.7 -0.52,-1.02 -0.93,-1.91 -1.41,-2.85 -1.69,-3.31 -6.94,-8.47 -9.78,-11.07 -1.69,-1.55 -0.93,-0.11 -2.59,-1.66 -1.13,-1.06 -0.76,-1.07 -2.09,-1.74 -0.94,-0.48 -1.83,-0.9 -2.85,-1.41 -5.85,-2.93 -11.75,-5.34 -18.01,-7.09 -3.56,-0.99 -11.82,-3.48 -14.49,-5.93 -6.32,-5.82 -2.1,-5.87 -4.72,-8.09 1.01,-0.89 0.92,0.34 0.92,-3.42 0.03,-0.03 0.44,-0.45 0.63,-0.64 1.26,-1.26 3.01,-3.31 4.45,-4.06l2.5 -0.9c2.06,-0.61 -0.21,-0.44 2.62,-0.79 4.13,-0.5 -2.07,-0.85 9.36,-0.85l11.88 0.03c2.39,0.51 -1.69,0.5 4.31,0.79 3.09,0.15 0.43,0.42 2.56,0.85 1.32,0.26 1.72,-0.24 3.11,0.3 0.74,0.29 -0.44,0.59 2.61,0.59l0.54 -0.92c2.3,0.3 1.59,0.35 3.13,-0.81 0.56,-4.85 0.52,-21.41 -0.2,-26.1 -3.76,-0.76 -6.58,-1.6 -10.52,-1.78 -2.8,-0.13 -1.04,-1.05 -4.64,-1.03 -1.99,0.01 -3.46,0.35 -4.26,-1.69l-0.27 -0.95 -20.15 0.1c-8.22,-0 -3.28,0.28 -5.99,0.81 -1.32,0.26 -1.74,-0.23 -3.11,0.3 -2.7,1.05 -5.59,1.06 -7.64,2.15 -0.08,0.04 -0.2,0.1 -0.28,0.14l-1.11 0.59c-1.7,0.66 -0.39,-0.29 -3.71,1.39 -0.75,0.38 -1.51,0.78 -2.26,1.14 -2.98,1.46 -7.21,4.8 -9.5,7.09l-6.81 8.51c-1.37,2.77 -3.43,6.88 -3.84,9.77 -0.3,2.15 -0.6,0.33 -0.85,2.55 -0.05,0.41 0.04,1.28 0.04,1.74 -0.02,2.73 -0.33,1.33 -0.74,2.66 -0.31,0.97 -0.13,2.24 -0.13,3.28 0.01,1.9 -0.33,4.64 0.26,6.12 0.45,1.12 0.18,-0.64 0.56,1.15 0.06,0.3 0.04,1.31 0.03,1.67 -0.02,2.39 -0.02,1.33 0.57,2.83l2.26 6.25c0.26,0.51 0.31,0.61 0.57,1.13 1.94,3.91 1.26,3.32 4.05,6.15 1.67,1.69 0.48,0.7 1.31,2.09 1.29,2.14 3.45,2.63 5.48,4.74l5.04 3.47c0.37,0.18 0.73,0.37 1.13,0.57l9.06 4.55c1.56,0.76 1.24,0.33 2.57,0.83l19.86 7.36c2.19,1.1 1.61,2.37 4.15,2.65 0.38,3.38 2.7,1.51 2.66,7.59 -0.01,1.17 0.09,1.3 -0.28,2.28 -0.36,0.94 0.02,-0.5 -0.43,0.85 -0.21,0.62 -0.07,0.61 -0.2,1.07 -0.65,2.23 -4.77,4.86 -7.02,5.74 -0.89,0.34 -1.11,0.2 -2.01,0.54 -7.51,2.82 -5.77,0.54 -8.79,1.85 -1.64,0.71 -10.9,0.62 -12.35,0.44 -2.45,-0.3 -0.28,-0.26 -1.81,-0.74 -1.23,-0.39 -4.01,-0.01 -5.43,-0.09 -2.87,-0.17 -0.41,-0.91 -4.22,-0.88l-6.54 -1.11c-1.16,-0.45 -4.28,-1.44 -6.28,-1.44z"/>
    <path fill="#C6C7C7" fill-opacity="0.701961" d="M124.48 282.58l-1.04 0.64c-3.16,0.6 -5.59,1.92 -8.49,3.21 -1.5,0.67 -0.77,0.16 -2,0.56 -1.05,0.34 -12.87,7.57 -14.63,9.19 -3.11,2.85 -6.54,6.51 -9.57,9.57l-5.73 8.31c-0.35,0.73 -1.28,2.81 -1.71,3.39 -2.56,3.49 -3.46,7.67 -4.95,11.64 -0.21,0.58 -0.13,0.01 -0.41,0.86l-1.14 4.81c-0.35,1.18 -0.37,-0.09 -0.68,1.44 -0.13,0.68 0.06,1.81 -0.07,2.48 -0.36,1.81 -0.86,0.36 -0.82,3.85 0.07,7.05 -0.19,3.54 -0.81,6.43l-0.05 7.22c0.28,2.22 0.9,0.32 0.89,3.79 -0.02,5.78 0.57,3.89 0.85,6.39 0.58,5.26 0.3,1.53 0.79,3.89 0.26,1.26 -0.22,0.8 0.32,2.24l5.26 13.88c1.21,2.41 3.41,6.82 5.33,8.71 1.56,1.54 0.53,1.32 1.88,2.8 0.6,0.66 1.86,1.63 2.31,2.37 1.06,1.76 0.47,1.24 2.18,2.93 0.52,0.51 1.86,2 2.35,2.34 1.42,1 1.07,0.17 2.76,1.91 0.46,0.48 1.89,2.03 2.34,2.34l8.79 5.68c1.54,0.76 5.09,2.78 6.59,3.19 1.44,0.4 0.09,-0.23 1.66,0.47l10.61 3.86c5.36,0.59 1.55,0.34 3.87,0.8 0.67,0.13 1.81,-0.06 2.48,0.07 1.81,0.36 0.36,0.86 3.86,0.82 4.37,-0.05 4.42,0.86 8.94,0.84 8.72,-0.03 6,-0.74 8.47,-0.88 1.44,-0.09 3.26,0.09 4.74,0.06 3.23,-0.06 0.99,-0.88 4.2,-0.9 3.58,-0.02 2,-0.42 3.89,-0.8 0.56,-0.11 1.56,0.04 2.1,-0.02 2.02,-0.22 0.52,-0.34 1.83,-0.73 1.02,-0.3 1.02,0.01 1.94,-0.19 1.67,-0.35 0.13,-0.41 1.8,-0.75 1.24,-0.26 0.86,0.2 2.23,-0.32 0.98,-0.37 -0.76,-0.52 1.97,-0.58l0 -38.29 -8.78 3.97c-0.75,0.28 -0.32,0.09 -1,0.28 -1.4,0.39 -1.06,0.63 -2.56,0.84 -0.67,0.09 -0.82,-0.07 -1.56,0.14l-2.67 0.73c-1.35,0.2 -0.5,0.08 -1.29,0.42l-3.41 0.42c-2.68,-0.05 -2.47,0.43 -4.28,0.82 -0.23,0.05 -1.36,0.05 -1.65,0.05 -1.89,-0.01 -5.31,0.22 -6.82,-0.44 -1.52,-0.67 -1.11,-0.39 -3,-0.41 -2.7,-0.02 -1.74,-0.53 -4.22,-0.88 -1.59,-0.23 -1.04,-0.43 -2.56,-0.84l-2.7 -1.13c-0.51,-0.26 -0.61,-0.31 -1.13,-0.57 -1.56,-0.78 -3.18,-1.28 -4.47,-2.33 -2.81,-2.29 -1.97,-1.13 -5.74,-4.9 -3.43,-3.43 -2.05,-2.43 -4.04,-4.9l-1.35 -2.06c-1.79,-3.67 -3.92,-7.65 -3.95,-11.79 -0.02,-2.78 -0.89,-1.49 -0.87,-6.36 0.01,-2.99 -0.35,-3.85 0.59,-6.22 0.54,-1.35 0.04,-1.79 0.3,-3.11l2.65 -7.98 3.48 -5.45c1.44,-1.8 2.6,-4.39 5.74,-6.59 1.46,-1.02 0.54,0.24 2.14,-1.26l11.73 -5.71c1.21,-0.44 1.69,-0.07 2.87,-0.53l3.24 -0.59c4.48,0.04 9.72,-0.28 14.08,-0.03 3.09,0.18 0.43,0.43 2.56,0.85 1.31,0.26 1.74,-0.23 3.1,0.3l14.17 4.98c1.13,0.57 0.11,0.22 1.41,0.72l0 -38.29c-3.08,0.01 -2.29,-0.52 -4.67,-0.86l-4.69 -1.26c-1.95,-0.81 -1.59,-0.11 -3.37,-0.46 -2.01,-0.4 0.38,-0.81 -2.99,-0.84 -4.26,-0.05 -3.29,-0.87 -6.83,-0.83l-19.61 -0.02c-3.37,0.06 -0.98,0.44 -2.98,0.84 -1.78,0.35 -1.43,-0.37 -3.37,0.46 -1.94,0.83 -1.59,0.11 -3.37,0.46 -1.93,0.38 0.27,0.82 -3.25,0.81z"/>
    <path fill="#C6C7C7" fill-opacity="0.701961" d="M536.07 317.47c0.78,-1.07 -0.32,-1.11 2.04,-0.55 3.5,0.82 2.35,0.7 5.02,1.93 0.11,-0.72 -0.6,-0.03 0.19,-1.38 1.59,1.61 3.2,1.4 3.75,0.74 0.83,-1.61 0.64,-29.23 -0.01,-32.16 -2.06,-1.19 -5.36,-1.73 -7.8,-2.27 -2.69,-0.6 -5.52,-1.15 -7.72,-2.01l2.87 -0.05 -0.75 -0.98c-4.93,0.36 -3.06,-0.71 -9.88,-0.71l-16.61 -0.02c-3.21,-0.02 -1.85,0.88 -4.63,0.89 -2.92,0.02 -4.6,0.65 -6.68,1.41 -1.58,0.58 -1.14,0.02 -2.56,0.42l-15.32 6.38c-1.92,0.93 -1.64,1.29 -3.39,2.14l-6.54 4.52c-1.71,1.76 -1.17,1.23 -3.13,2.41 -4.57,2.75 -8.91,10.5 -12.39,14.83l-3.97 7.09c-0.5,1.77 -0.76,2.2 -1.63,3.9 -1.37,2.67 -2.37,7.54 -3.28,9.91 -0.65,1.69 -0.09,1.19 -0.26,2.72 -0.19,1.63 -0.38,0.71 -0.72,1.83 -0.35,1.12 -0.04,1.74 -0.1,2.88 -0.11,2.27 -0.94,1.19 -0.9,4.64 0.02,1.84 0.01,3.69 0.01,5.54 0,3.36 -0.61,7.47 0.58,10.48 0.68,1.72 -0.04,3.2 0.31,4.8 0.27,1.25 0.53,0.55 0.78,1.78 0.26,1.28 -0.23,1.41 0.17,2.8l2.84 8.22c2.29,6.06 5.41,12.69 9.81,17.42 1.17,1.25 0.65,1.61 2.31,3.22 1.87,1.81 3.69,3.69 5.54,5.53 5.88,5.88 12.7,9.11 19.93,12.83l5.63 2.45c1.57,0.57 1.16,-0.01 2.58,0.39 0.75,0.21 3.35,1.35 4.04,1.5 1.33,0.28 0.66,-0.25 2.22,0.33 1.41,0.52 0.07,0.59 2.37,0.61 3.47,0.02 2.4,0.72 4.67,0.86 1.68,0.11 3.91,-0.38 5.43,0.1 2.33,0.73 7.13,1.27 9.88,0.68 1.23,-0.27 0.54,-0.51 1.78,-0.78 2.74,-0.59 5.28,0.41 7.89,-0.62 1.78,-0.7 3.48,0.11 5.13,-0.41 1.11,-0.35 0.19,-0.54 1.83,-0.72 1.53,-0.17 1.03,0.38 2.72,-0.26 1.56,-0.59 -0.17,-0.3 1.97,-0.58 2.13,-0.28 0.71,-0.14 2.3,-0.68 1.59,-0.55 2.68,-1.07 4.51,-1.02l0 -38.29 -7.94 3.55c-1.25,0.66 -2.15,0.48 -3.42,0.84l-2.53 0.87c-1.66,0.57 0.57,0.56 -2.26,0.71 -2.55,0.14 -2.96,0.89 -5.55,0.83 -4.15,-0.08 -0.43,0.83 -8.93,0.85 -4.96,0.02 -3.55,-0.64 -5.52,-0.87 -1.08,-0.13 -2.25,0.21 -3.29,-0.11l-7.08 -2.28c-0.09,-0.04 -0.2,-0.1 -0.28,-0.14l-4.24 -2.14c-1.2,-0.88 -0.35,-0.56 -1.71,-1.26 -1.14,-0.59 -0.87,-0.46 -1.91,-1.5 -1.67,-1.7 -0.69,-0.48 -2.09,-1.32 -1.2,-0.72 -2.51,-2.64 -2.94,-3.44 -0.47,-0.88 -0.91,-1.07 -1.6,-1.8l-2.81 -4.42c-0.04,-0.09 -0.1,-0.19 -0.15,-0.28l-2.99 -8.93c-0.39,-2.69 -0.35,-0.03 -0.81,-2.17 -0.4,-1.88 -0.2,-10.36 -0.06,-12.76 0.12,-2.17 0.53,-1.26 0.89,-3.78l1.26 -3.84c0.15,-0.38 0.1,-0.01 0.36,-0.92l3.9 -7.59c1.39,-1.98 6.17,-6.58 8.38,-7.79 0.8,-0.43 1.16,-1.02 1.94,-1.46l2.01 -0.97c1.9,-0.94 3.53,-2.01 5.53,-2.55 1.52,-0.41 0.96,-0.61 2.56,-0.84 2.49,-0.35 1.5,-0.84 4.22,-0.89l15.8 -0c3.09,0.18 0.44,0.43 2.56,0.85 1.32,0.26 1.75,-0.24 3.11,0.3l2.78 0.59z"/>
    <path fill="#C6C7C7" fill-opacity="0.701961" d="M229.7 420.97c2.14,1.06 30.77,0.76 32.35,0.3 1,-2.17 0.46,-89.44 0.46,-104.23 0,-6.43 0.85,-29.67 -0.65,-34.05l-31.69 -0.1c-1.46,3.35 -0.7,60.29 -0.7,68.6 0,8.2 -0.69,66.91 0.22,69.47z"/>
    <path fill="#C6C7C7" fill-opacity="0.701961" d="M229.7 420.97c-0.91,-2.56 -0.22,-61.27 -0.22,-69.47 0,-8.31 -0.76,-65.25 0.7,-68.6l31.69 0.1c1.5,4.37 0.65,27.61 0.65,34.05 0,14.79 0.54,102.06 -0.46,104.23 -1.58,0.45 -30.21,0.76 -32.35,-0.3zm-1.28 -138.39l0.09 140.13 35.04 0.03 0.04 -140.16c-0.6,-0.48 -0.73,-0.57 -1.46,-0.85l-32.33 0c-0.85,0.33 -0.7,0.26 -1.38,0.85z"/>
    <path fill="#C6C7C7" fill-opacity="0.701961" d="M789.65 410.86l0.72 1.06c0.31,2.15 3.5,9.23 3.54,11.06 2.63,0 2.51,0.19 3.56,-1.98l3.41 -9.35c0.6,-1.74 0.62,0.79 0.7,-2.28 1.33,0.56 0.9,0.31 0.87,2.53l0.06 11.01 2.48 0.08 0 -19.58c-4,0 -3.05,-0.62 -5.11,3.4l-3.79 11.1c-0.39,-0.41 -0.97,-0.85 -1.19,-1.44 -0.48,-1.31 0.31,-0.41 -0.98,-2.85 -0.04,-0.09 -0.1,-0.2 -0.15,-0.28l-1.56 -4.4c-0.8,-2.88 -0.83,-3.15 -1.92,-4.46 -0.56,-0.66 -0.3,-0.15 -0.64,-1.07l-17.87 0c-0.04,0.1 -0.12,0.14 -0.14,0.28l-0.6 1.12c-0.22,0.77 -0.1,1.19 -0.04,1.93l5.81 0.09 0.07 16.15 3.4 0 0 -16.17 5.96 0 0 16.17 2.55 0c0,-2.83 -0.61,-11.87 0.43,-13.69 0.59,0.98 0.38,-0.26 0.43,1.57z"/>
    <path fill="#C6C7C7" fill-opacity="0.701961" d="M263.59 282.58l-0.04 140.16 -35.04 -0.03 -0.09 -140.13c-1.1,2.26 -0.32,126.19 -0.32,140.39l35.74 0c0,-13.54 0.46,-138.46 -0.24,-140.39z"/>
    <path fill="#C6C7C7" fill-opacity="0.701961" d="M536.07 317.47c1.68,0.61 0.19,0.29 1.46,0.7l3.25 1c2.93,0.79 5.31,3.34 8.08,3.41l0 -38.29c-4.73,0 -4.48,-1.17 -6.86,-1.65 -0.76,-0.15 -1.11,0.06 -1.94,-0.19 -1.48,-0.44 0.57,-0.26 -1.44,-0.69 -0.71,-0.15 -3.31,-0.03 -4.22,-0.04l-2.87 0.05c2.2,0.86 5.03,1.41 7.72,2.01 2.44,0.54 5.74,1.09 7.8,2.27 0.65,2.93 0.84,30.54 0.01,32.16 -0.55,0.65 -2.16,0.87 -3.75,-0.74 -0.79,1.35 -0.08,0.66 -0.19,1.38 -2.68,-1.23 -1.52,-1.11 -5.02,-1.93 -2.35,-0.56 -1.26,-0.52 -2.04,0.55z"/>
    <path fill="#C6C7C7" fill-opacity="0.701961" d="M392.96 313.21c2.69,0.81 -1.15,0.85 5.31,0.85l0 -29.78c-3.18,-0.07 -0.52,-0.2 -2.26,-0.72 -1.16,-0.34 -1.35,0.07 -2.57,-0.4 -0.78,-0.3 0.49,-0.06 -0.82,-0.45l-2.81 -0.17c-1.82,-0.36 -0.06,-0.11 -1.15,-0.55 -2.26,-0.9 -1.54,0.58 -5.1,-0.85 -1.62,-0.65 -4.55,-0.26 -6.54,-0.26 0.81,2.04 2.27,1.7 4.26,1.69 3.61,-0.02 1.84,0.91 4.64,1.03 3.94,0.18 6.76,1.01 10.52,1.78 0.72,4.69 0.76,21.25 0.2,26.1 -1.54,1.16 -0.83,1.11 -3.13,0.81l-0.54 0.92z"/>
    <path fill="#C6C7C7" fill-opacity="0.701961" d="M716.48 305.92l0.02 -1.68c-1.27,-1.08 -2.41,-2.35 -3.64,-3.58 -1.15,-1.15 -2.65,-3.09 -4.02,-3.62l-1.19 0c0.83,1.69 7.17,8.06 8.81,8.87z"/>
    <path fill="#C6C7C7" fill-opacity="0.701961" d="M636.5 381.7c-0.07,-1.53 -1.33,-2.19 -2.34,-3.19 -0.39,-0.39 -0.87,-0.93 -1.24,-1.29 -0.94,-0.91 -0.51,-0.78 -1.9,-1.05 1.08,2.51 2.87,4.47 5.48,5.53z"/>
    <path fill="#C6C7C7" fill-opacity="0.701961" d="M311.48 391.69l1.15 -1.64 0.78 0.37c1.84,-0.04 0.7,0.16 1.41,-0.63 -1.15,-0.71 -1.6,-0.91 -3.27,-0.78l-0.07 2.67z"/>
    <polygon fill="#C6C7C7" fill-opacity="0.701961" points="790.37,411.91 789.65,410.86 789.7,411.86 "/>
    <polygon fill="#C6C7C7" fill-opacity="0.701961" points="123.44,283.22 124.48,282.58 123.5,282.64 "/>
   </g>
  </g>
 </g>
</svg>
