<?xml version="1.0" encoding="UTF-8"?>
<!DOCTYPE svg PUBLIC "-//W3C//DTD SVG 1.1//EN" "http://www.w3.org/Graphics/SVG/1.1/DTD/svg11.dtd">
<!-- Creator: CorelDRAW 2021 (64-Bit) -->
<svg xmlns="http://www.w3.org/2000/svg" xml:space="preserve" width="100%" height="100%" version="1.1" shape-rendering="geometricPrecision" text-rendering="geometricPrecision" image-rendering="optimizeQuality" fill-rule="evenodd" clip-rule="evenodd"
viewBox="0 0 2048.24 462.85"
 xmlns:xlink="http://www.w3.org/1999/xlink"
 xmlns:xodm="http://www.corel.com/coreldraw/odm/2003">
 <g id="Layer_x0020_1">
  <metadata id="CorelCorpID_0Corel-Layer"/>
  <g id="_2669905400976">
   <path fill="#D2D3D3" fill-opacity="0.701961" d="M1356.63 388.37l0 -117.05c26.72,0 65.15,-4.96 85.34,5.1 20.99,10.48 37.38,25.19 37.41,53.41 0.05,66.86 -66.94,58.53 -122.74,58.53zm0 -186.21l0 -101.08c21.77,0 55.06,-4.06 71.28,3.19 15.47,6.92 31.32,24.8 30.13,47.24 -2.93,55.64 -51.77,50.65 -101.41,50.65zm-74.63 -166.84c-6.79,4.32 -15.89,-0.01 -16.04,30.95l0.2 343.41c-0.37,43.93 3.09,48.26 47.89,47.88 75.66,-0.65 185.83,12.12 236.49,-58.83 34.38,-48.15 33.63,-123.17 -30,-163.65 -13.51,-8.6 -34.28,-7.27 -11.78,-21.35 28.71,-17.97 29.29,-36.35 36.34,-62.87 9.84,-37.02 -18.86,-94.37 -76.58,-111.13 -23.17,-6.73 -168.06,-16.18 -186.52,-4.42z"/>
   <path fill="#A6A6A6" fill-opacity="0.701961" d="M0.54 446.35c20.58,11.24 25.19,14.24 57.94,11.13 27.3,-2.59 32.44,-10.28 32.11,-39.71 -0.53,-46.97 -0.14,-94.13 -0.14,-141.13l154.29 0 0.01 169.78c22.99,11.93 19.31,12.47 53.37,11.3 21.57,-0.74 35.39,-5.6 37.1,-26.76 3.04,-37.75 -0.05,-90.93 -0.05,-130.39 0,-76.94 6.23,-184.56 -0.53,-257.49 -26.44,-14.43 -18.93,-10.87 -55.48,-11.34 -27.06,-0.35 -34.94,4.13 -34.64,31.86 0.47,44.39 0.22,88.82 0.22,133.23l-154.29 0 -0.01 -153.83c-26.35,-13.7 -17.26,-10.81 -53.29,-11.22 -22.56,-0.25 -35.09,0.88 -37.14,21.37l0 131.65 0 2.03 0 2.02 0 251.31 0.54 6.18z"/>
   <path fill="#A6A6A6" fill-opacity="0.701961" d="M611.87 327.82c-5.13,14.79 -2.35,41.44 -24.74,54.48 -18.3,10.66 -42.9,14.78 -65.26,5.56 -42.53,-17.53 -43.26,-83.13 -37.41,-124.19 5.86,-41.27 51.95,-81.33 95.72,-56.48 19.46,11.06 26.15,24.08 31.65,48.14 6.22,27.09 9.73,44.51 0.03,72.49zm-90.5 -192.16c-42.79,12.42 -74.05,16.38 -100.2,59.4 -23.63,38.88 -32.74,89.67 -27.27,134.58 13.21,108.34 84,139.38 183.53,128.09 44.32,-5.04 74.32,-23.38 100.47,-59.14 26.07,-35.67 29.14,-86.12 24.57,-127.52 -5.5,-49.78 -9.24,-74.36 -49.34,-110.22 -28.62,-25.59 -96.41,-35.44 -131.75,-25.19z"/>
   <path fill="#A6A6A6" fill-opacity="0.701961" d="M755.22 374.84c-10.07,14.85 -11.07,54.46 9.01,65.94 21.46,12.26 44.11,16.66 66.52,21.26 10.95,2.24 67.99,-4.16 77.43,-8.72 21.36,-10.32 35.78,-18.05 50.66,-37.11 29.04,-37.2 22.34,-89.54 -11.74,-121.07 -31.16,-28.82 -77.27,-30.66 -116.93,-58.64 -7.31,-81.85 104.6,-17.88 121.66,-18.83 10.95,-20.65 19.18,-61.36 -14.02,-72.85 -27.3,-9.44 -66.76,-17.86 -97.44,-9.22 -22.68,6.4 -56.72,15.1 -72.5,36.43 -39.04,52.78 -15.65,116.56 42.46,142.83 19.51,8.82 61.92,21.74 75.84,35.91 28.7,29.2 -16.97,50.65 -48.31,48.4 -24.19,-1.74 -70.76,-30.89 -82.64,-24.34z"/>
   <path fill="#A6A6A6" fill-opacity="0.701961" d="M1042.74 74.48l-0.03 63.39 -37.21 0.48c-12.37,5.21 -14.08,35.05 -10.15,52.68 5.03,22.55 26.74,14.83 46.79,17.06 12.44,112.06 -35.73,224.76 68.74,250.47 9.89,2.43 18,3.8 25.11,4.29l11.66 0c16.04,-1.23 28.16,-7.65 49.38,-15.96 0,-18.03 9.72,-57.53 -5.32,-63.84 -22.85,-0.04 -25.44,11.61 -50.85,0.31 -17.28,-7.67 -13.05,-27.77 -13,-50.85 0.09,-41.67 0.01,-83.35 0.01,-125.02 14.42,0 57.99,5.98 64.3,-4.87 10.68,-6.21 10.68,-53.22 0,-59.44l-63.84 -5.31 -0.51 -68.25c-22.63,-11.86 -14.19,-11.16 -45.17,-11.21 -20.72,-0.04 -32.84,-2.62 -39.9,16.07z"/>
   <path fill="#D2D3D3" fill-opacity="0.701961" d="M1808.83 3.34c-21.61,16.78 -10.64,91.41 -10.64,124.34l0 271.33c-0.01,23.57 -6.4,45.9 11.9,54.6 5.28,2.51 68.57,16.07 73.05,-20.19 1.11,-8.96 0.18,-24.75 0.17,-34.41l0 -340.49c0.02,-22 4.15,-44.87 -12.02,-54.48 -2.68,-1.59 -11.48,-3.16 -21.74,-4.03l-29.5 0c-5.06,0.62 -9.1,1.69 -11.22,3.34z"/>
   <path fill="#D2D3D3" fill-opacity="0.701961" d="M1973.76 3.34c-21.61,16.78 -10.64,91.41 -10.64,124.34l0 271.33c-0.01,23.57 -6.4,45.9 11.91,54.6 5.27,2.51 68.57,16.07 73.05,-20.19l0.17 -374.9 0 -32.48c-1.05,-9.41 -4.1,-17.29 -12.02,-22 -2.68,-1.59 -11.48,-3.16 -21.74,-4.03l-29.5 0c-5.06,0.62 -9.1,1.69 -11.22,3.34z"/>
   <path fill="#D2D3D3" fill-opacity="0.701961" d="M1633.47 446.69c18.61,7.89 11.46,11.17 39.7,11.13 16.31,-0.02 32.81,-1.79 40.13,-10.69 9.94,-12.1 5.67,-273.08 4.89,-297.96 -18.83,-7.98 -11.17,-11.12 -39.57,-11.01 -17.46,0.07 -33.98,-2.07 -41.69,9.17 -9.37,13.67 -3.66,75.85 -3.66,97.39 0,66.5 -1.89,135.89 0.2,201.96z"/>
   <path fill="#D2D3D3" fill-opacity="0.701961" d="M1649.46 14.21c-12.03,9.31 -18.8,6.59 -21.33,25.87 -1.92,14.7 -0.62,36.18 3.86,43.66 14.81,24.72 120.85,34.67 90.46,-53.22 -7.31,-21.14 -58.93,-27.22 -72.99,-16.32z"/>
  </g>
 </g>
</svg>
