<?xml version="1.0" encoding="UTF-8"?>
<!DOCTYPE svg PUBLIC "-//W3C//DTD SVG 1.1//EN" "http://www.w3.org/Graphics/SVG/1.1/DTD/svg11.dtd">
<!-- Creator: CorelDRAW 2021 (64-Bit) -->
<svg xmlns="http://www.w3.org/2000/svg" xml:space="preserve" width="100%" height="100%" version="1.1" shape-rendering="geometricPrecision" text-rendering="geometricPrecision" image-rendering="optimizeQuality" fill-rule="evenodd" clip-rule="evenodd"
viewBox="0 0 1062.62 426.29"
 xmlns:xlink="http://www.w3.org/1999/xlink"
 xmlns:xodm="http://www.corel.com/coreldraw/odm/2003">
 <g id="Layer_x0020_1">
  <metadata id="CorelCorpID_0Corel-Layer"/>
  <g id="_2671078208880">
   <path fill="#B8B8B8" fill-opacity="0.701961" d="M649.19 198.83c0,0.96 0.29,1.24 1.24,1.24l86.34 0c1.92,0 1.25,-3.31 1.24,-5.39l0 -20.76c0.06,0.08 0.13,0.12 0.15,0.26l7.06 19.92c0.61,1.81 1.35,5.97 3.17,5.97l156.07 0c1.82,0 2.56,-4.15 3.17,-5.97 0.71,-2.14 6.24,-19.07 7.21,-20.18l0 20.34c-0,1.9 -0.75,5.81 1.24,5.81l86.34 0c0.96,0 1.24,-0.29 1.24,-1.24l0 -29.06 -168.11 0c-1.36,0 -1.28,0.97 -1.64,2.1l-7.91 21.15c-0.13,-1.59 -5.05,-14.93 -5.97,-17.69 -1,-3 -1.23,-5.56 -2.75,-5.56l-168.11 0 0 29.06z"/>
   <path fill="#B8B8B8" fill-opacity="0.701961" d="M235.77 57.7l0 28.64 329.99 0c-1.41,-6.06 -5.44,-17.17 -8.3,-22.83 -0.86,-1.7 -2.91,-5.3 -3.32,-7.06l-309.24 0c-3.93,0 -9.13,-0.8 -9.13,1.24z"/>
   <path fill="#B8B8B8" fill-opacity="0.701961" d="M235.77 368.59c0,1.75 1.87,1.29 3.72,1.26 23.84,-0.39 50.79,-0.02 74.73,-0.02l239.92 0 3.46 -6.92c3.37,-6.71 6.43,-15.51 8.16,-22.97l-329.99 0 0 28.64z"/>
   <path fill="#B8B8B8" fill-opacity="0.701961" d="M235.77 28.64c0,2.01 3.92,1.24 7.89,1.24l288.48 0c-1.56,-2.33 -11.7,-9.74 -14.03,-11.29 -16,-10.65 -38.21,-18.59 -57.78,-18.59l-224.56 0 0 28.64z"/>
   <path fill="#B8B8B8" fill-opacity="0.701961" d="M235.77 425.05c0,0.94 0.28,1.23 1.19,1.24l225.51 0c13.87,-0.02 27.72,-4.7 39.72,-9.6 6.12,-2.5 26.18,-14.73 29.94,-19.87l-296.37 0 0 28.23z"/>
   <path fill="#B8B8B8" fill-opacity="0.701961" d="M295.13 200.07l232.44 0c2.35,0 6.31,-4.45 7.99,-6.12 4.98,-4.98 16.88,-18.69 18.16,-24.18l-258.6 0 0 30.3z"/>
   <path fill="#B8B8B8" fill-opacity="0.701961" d="M295.13 256.52l258.6 0c-0.76,-3.28 -11.13,-16.76 -14.42,-20.04 -2.08,-2.07 -8.8,-9.85 -11.31,-9.85l-232.86 0 0 29.89z"/>
   <polygon fill="#B8B8B8" fill-opacity="0.701961" points="-0,0 -0,29.89 206.71,29.89 206.71,0 "/>
   <polygon fill="#B8B8B8" fill-opacity="0.701961" points="-0,86.34 206.71,86.34 206.71,56.45 -0,56.45 "/>
   <polygon fill="#B8B8B8" fill-opacity="0.701961" points="-0,369.84 206.71,369.84 206.71,339.95 -0,339.95 "/>
   <polygon fill="#B8B8B8" fill-opacity="0.701961" points="206.71,426.29 206.71,396.82 -0,396.82 -0,426.29 "/>
   <path fill="#B8B8B8" fill-opacity="0.701961" d="M590.25 86.34l198.82 0c-0.15,-1.81 -4.02,-12.28 -4.93,-15 -1.33,-3.99 -4.21,-11.37 -5.03,-14.89l-188.86 0 0 29.89z"/>
   <path fill="#B8B8B8" fill-opacity="0.701961" d="M863.79 86.34l198.83 0 0 -29.89 -188.87 0c-0.81,3.48 -3.79,11.11 -5.04,14.89 -0.8,2.42 -1.64,4.92 -2.49,7.48 -0.76,2.26 -1.88,5.13 -2.44,7.52z"/>
   <path fill="#B8B8B8" fill-opacity="0.701961" d="M590.25 29.89l179.31 0c-0.23,-2.79 -8.75,-24.68 -9.96,-29.89l-169.35 0 0 29.89z"/>
   <path fill="#B8B8B8" fill-opacity="0.701961" d="M1062.62 0l-169.35 0c-0.19,2.26 -1.78,5.53 -2.44,7.52 -0.85,2.55 -1.68,5.06 -2.48,7.48 -0.88,2.64 -1.72,4.72 -2.6,7.37 -0.75,2.27 -1.88,5.12 -2.44,7.52l179.32 0 0 -29.89z"/>
   <path fill="#B8B8B8" fill-opacity="0.701961" d="M649.19 143.2l159.39 0c-0.05,-2.2 -3.93,-12.43 -4.93,-15.41l-3.84 -11.1c-0.39,-1.22 -0.58,-3.37 -2.02,-3.37l-148.6 0 0 29.89z"/>
   <path fill="#B8B8B8" fill-opacity="0.701961" d="M844.28 143.2l159.39 0 0 -29.89 -148.6 0c-1.56,0 -2.12,3.83 -3.16,6.8l-5.26 15.08c-0.69,1.73 -2.33,6.12 -2.37,8.01z"/>
   <polygon fill="#B8B8B8" fill-opacity="0.701961" points="590.25,369.84 738.02,369.84 738.02,339.95 590.25,339.95 "/>
   <polygon fill="#B8B8B8" fill-opacity="0.701961" points="914.85,369.84 1062.62,369.84 1062.62,339.95 914.85,339.95 "/>
   <polygon fill="#B8B8B8" fill-opacity="0.701961" points="738.02,426.29 738.02,396.82 590.25,396.82 590.25,426.29 "/>
   <polygon fill="#B8B8B8" fill-opacity="0.701961" points="1062.62,426.29 1062.62,396.82 914.85,396.82 914.85,426.29 "/>
   <path fill="#B8B8B8" fill-opacity="0.701961" d="M767.07 256.52l118.72 0 5.14 -14.79c0.8,-2.39 4.79,-13.57 4.82,-15.1l-138.64 0c0.04,1.87 6.33,19.21 7.42,22.46l2.54 7.42z"/>
   <path fill="#B8B8B8" fill-opacity="0.701961" d="M471.95 284.33l0 27.81c0,0.96 0.29,1.25 1.24,1.25l94.64 0c2.44,0 0.91,-5.52 0.83,-7.06 -0.17,-3.48 -0.3,-5.61 -0.7,-8.43 -0.83,-5.74 -1.86,-9.79 -3.04,-14.81l-88 0c-2.03,-0.01 -4.98,-0.65 -4.98,1.25z"/>
   <path fill="#B8B8B8" fill-opacity="0.701961" d="M471.95 141.96c0,1.85 2.58,1.26 4.56,1.25l88.42 -0c0.54,-2.31 1.15,-4.24 1.63,-6.68 1.48,-7.49 2.53,-15.13 2.53,-23.21l-97.13 0 0 28.64z"/>
   <path fill="#B8B8B8" fill-opacity="0.701961" d="M787.83 313.39l77.2 0c1.43,0 2.32,-4.09 3.37,-7 0.89,-2.46 1.81,-5.07 2.7,-7.68 1,-2.92 4.96,-13.56 5.13,-15.62l-99.62 0c0.15,1.74 1.85,6.32 2.44,7.94 0.95,2.62 1.74,4.87 2.7,7.68 0.89,2.61 1.81,5.21 2.7,7.68 0.5,1.37 0.89,2.17 1.35,3.63 0.39,1.22 0.57,3.37 2.02,3.37z"/>
   <path fill="#B8B8B8" fill-opacity="0.701961" d="M58.94 200.07l87.58 0c0.96,0 1.25,-0.29 1.25,-1.24l0 -27.81c0,-0.96 -0.29,-1.25 -1.25,-1.25l-87.58 0 0 30.3z"/>
   <polygon fill="#B8B8B8" fill-opacity="0.701961" points="649.19,312.97 738.02,312.97 738.02,283.09 649.19,283.09 "/>
   <polygon fill="#B8B8B8" fill-opacity="0.701961" points="914.85,312.97 1003.67,312.97 1003.67,283.09 914.85,283.09 "/>
   <polygon fill="#B8B8B8" fill-opacity="0.701961" points="58.94,256.52 147.77,256.52 147.77,226.64 58.94,226.64 "/>
   <polygon fill="#B8B8B8" fill-opacity="0.701961" points="58.94,143.2 147.77,143.2 147.77,113.32 58.94,113.32 "/>
   <polygon fill="#B8B8B8" fill-opacity="0.701961" points="914.85,256.52 1003.67,256.52 1003.67,226.64 914.85,226.64 "/>
   <polygon fill="#B8B8B8" fill-opacity="0.701961" points="649.19,256.52 738.02,256.52 738.02,226.64 649.19,226.64 "/>
   <path fill="#B8B8B8" fill-opacity="0.701961" d="M58.94 312.97l88.83 0 0 -28.64c0,-0.96 -0.29,-1.25 -1.25,-1.25l-87.58 0 0 29.89z"/>
   <path fill="#B8B8B8" fill-opacity="0.701961" d="M295.13 312.97l88.83 0 0 -28.64c0,-0.96 -0.29,-1.25 -1.24,-1.25l-87.58 0 0 29.89z"/>
   <path fill="#B8B8B8" fill-opacity="0.701961" d="M295.13 143.2l87.58 0c0.96,0 1.24,-0.29 1.24,-1.24l0 -28.64 -88.83 0 0 29.89z"/>
   <path fill="#B8B8B8" fill-opacity="0.701961" d="M807.76 369.84l37.35 0c1.69,0 2.22,-3.83 3.44,-6.93l8.18 -22.95 -60.19 0c0.18,2.14 7.68,22.26 9.07,26.63 0.42,1.31 0.66,3.26 2.13,3.26z"/>
   <polygon fill="#B8B8B8" fill-opacity="0.701961" points="826.02,425.88 836.81,396.82 816.06,396.82 "/>
  </g>
 </g>
</svg>
